# xmcd
#
# Track frame offsets: 
#        150
#        12084
#        22674
#        36113
#        47774
#        62415
#        76178
#        89659
#        101705
#        114745
#        126078
#        139194
#        153693
#        165700
#        176860
#        190611
#        200875
#        212996
#        227904
#        243462
#
# Disc length: 3453 seconds
#
# Revision: 0
# Processed by: cddbd v1.5.2PL0 Copyright (c) Steve Scherf et al.
# Submitted via: ExactAudioCopy v0.99pb5
#
DISCID=170d7b14
DTITLE=Mirettes, the - In The Midnight Hour
DYEAR=1969
DGENRE=R&B
TTITLE0=Sister Watch Yourself
TTITLE1=Somethin's Wrong
TTITLE2=Whirlpool
TTITLE3=So Lonely
TTITLE4=At Last (I Found A Love)
TTITLE5=Heart Full Of Gladness
TTITLE6=Ain't You Tryin' To Cross Over
TTITLE7=If Everybody'd Help Somebody
TTITLE8=Stand By Your Man
TTITLE9=I Miss You Baby (How I Miss You)
TTITLE10=Take Me For A Little While
TTITLE11=The Real Thing
TTITLE12=I'm A Whole New Thing
TTITLE13=On The Good Ship Lollipop
TTITLE14=Somewhere (from "West Side Story")
TTITLE15=Keep On Running
TTITLE16=First Love
TTITLE17=Tweedlee Dee
TTITLE18=To Love Somebody
TTITLE19=In The Midnight Hour
EXTD=
EXTT0=
EXTT1=
EXTT2=
EXTT3=
EXTT4=
EXTT5=
EXTT6=
EXTT7=
EXTT8=
EXTT9=
EXTT10=
EXTT11=
EXTT12=
EXTT13=
EXTT14=
EXTT15=
EXTT16=
EXTT17=
EXTT18=
EXTT19=
PLAYORDER=
